<svg xmlns="http://www.w3.org/2000/svg" viewBox="0 0 254 265" aria-hidden="true">
  <defs>
    <linearGradient id="stroke" x1="0" y1="0" x2="1" y2="1"><stop stop-color="#5BC0BE"/><stop offset="1" stop-color="#8CC5EF"/></linearGradient>
    <linearGradient id="glow" x1="0" x2="1" y1="0" y2="1"><stop stop-color="#5BC0BE" stop-opacity=".14"/><stop offset="1" stop-color="#5DADE2" stop-opacity=".02"/></linearGradient>
  </defs>
  <circle cx="134" cy="122" r="98" fill="url(#glow)"/>
  <g fill="none" stroke="#78C9D4" stroke-width="1.2" opacity=".34">
    <path d="M14 202c49-22 86-23 127-8 34 12 67 8 99-8M14 218c49-22 86-23 127-8 34 12 67 8 99-8"/>
    <path d="M26 177c47-21 87-22 129-8 29 10 58 7 83-6"/>
    <circle cx="135" cy="122" r="82" stroke-dasharray="3 7"/>
  </g>
  <g fill="none" stroke="url(#stroke)" stroke-width="4" stroke-linecap="round" stroke-linejoin="round">
    <path d="M146 53c7-2 15 2 17 10 1 9-4 16-12 18-9 2-16-3-18-11-1-8 4-15 13-17Z"/>
    <path d="M139 85c-10 5-15 16-14 28l14 31 28-17-7-27c-3-11-12-18-21-15Z"/>
    <path d="M131 95 99 121l-25 3M160 101l17 27 26 10"/>
    <path d="m139 144-23 32-22 30-31 7M166 127l18 37 25 24 27 5"/>
    <path d="m65 213-10 10m181-30 8 9"/>
  </g>
  <g fill="#99DBE4" opacity=".8"><circle cx="40" cy="161" r="2.5"/><circle cx="55" cy="149" r="1.5"/><circle cx="210" cy="90" r="2"/></g>
</svg>
